REM MD5 6c2b5e510a8b20d9d6b8c421fdb599d2
FILE "PlayStation Zone CD Vol. 1 (Germany).bin" BINARY
  TRACK 01 MODE2/2352
    INDEX 01 00:00:00
  TRACK 02 AUDIO
    INDEX 00 43:40:57
    INDEX 01 43:42:57
  TRACK 03 AUDIO
    INDEX 00 46:08:51
    INDEX 01 46:10:51
  TRACK 04 AUDIO
    INDEX 00 46:33:10
    INDEX 01 46:35:10
  TRACK 05 AUDIO
    INDEX 00 51:57:74
    INDEX 01 51:59:74
  TRACK 06 AUDIO
    INDEX 00 52:31:74
    INDEX 01 52:33:74
REM LEADOUT 56:33:71
